<svg width="102" height="32" viewBox="0 0 102 32" fill="none" xmlns="http://www.w3.org/2000/svg">
<rect width="32" height="32" rx="8" fill="#375DFB" style="fill:#375DFB;fill:color(display-p3 0.2157 0.3647 0.9843);fill-opacity:1;"/>
<g filter="url(#filter0_d_39_216)">
<path d="M6.52075 16.25C6.52075 14.2003 7.16991 12.3021 8.27386 10.75H13.0208V11.6395C11.5156 12.6208 10.5208 14.3192 10.5208 16.25C10.5208 19.2876 12.9832 21.75 16.0208 21.75V25.75C10.774 25.75 6.52075 21.4967 6.52075 16.25Z" fill="url(#paint0_linear_39_216)" style=""/>
<path d="M23.7676 21.75C24.8716 20.1979 25.5208 18.2997 25.5208 16.25C25.5208 11.0033 21.2675 6.75 16.0208 6.75V10.75C19.0583 10.75 21.5208 13.2124 21.5208 16.25C21.5208 18.1808 20.5259 19.8792 19.0208 20.8605V21.75H23.7676Z" fill="url(#paint1_linear_39_216)" style=""/>
</g>
<path d="M40.0026 22.6667V9.12293H45.1873C46.1661 9.12293 46.9795 9.27723 47.6276 9.58585C48.2801 9.89005 48.7672 10.3067 49.0891 10.8357C49.4153 11.3648 49.5785 11.9644 49.5785 12.6345C49.5785 13.1856 49.4726 13.6573 49.261 14.0497C49.0494 14.4377 48.765 14.7529 48.4079 14.9954C48.0508 15.2379 47.6518 15.412 47.2109 15.5178V15.6501C47.6915 15.6766 48.1522 15.8243 48.5931 16.0932C49.0384 16.3577 49.4021 16.7325 49.6843 17.2174C49.9664 17.7024 50.1075 18.2888 50.1075 18.9765C50.1075 19.6775 49.9378 20.308 49.5983 20.8679C49.2588 21.4234 48.7474 21.8621 48.064 22.1839C47.3807 22.5057 46.521 22.6667 45.4849 22.6667H40.0026ZM42.4561 20.6166H45.0947C45.9853 20.6166 46.6268 20.4469 47.0192 20.1074C47.416 19.7635 47.6143 19.3226 47.6143 18.7847C47.6143 18.3835 47.5151 18.022 47.3168 17.7002C47.1184 17.3739 46.8362 17.1182 46.4703 16.9331C46.1043 16.7435 45.6679 16.6487 45.1609 16.6487H42.4561V20.6166ZM42.4561 14.883H44.8831C45.3064 14.883 45.6877 14.8058 46.0272 14.6515C46.3667 14.4928 46.6334 14.2702 46.8274 13.9836C47.0258 13.6926 47.125 13.3487 47.125 12.9519C47.125 12.4273 46.9398 11.9952 46.5695 11.6558C46.2035 11.3163 45.6591 11.1466 44.936 11.1466H42.4561V14.883ZM52.1361 22.6667V12.5089H54.5301V22.6667H52.1361ZM53.3397 11.0672C52.9605 11.0672 52.6343 10.9415 52.3609 10.6902C52.0876 10.4345 51.9509 10.1281 51.9509 9.77102C51.9509 9.4095 52.0876 9.10309 52.3609 8.85179C52.6343 8.59608 52.9605 8.46823 53.3397 8.46823C53.7232 8.46823 54.0495 8.59608 54.3184 8.85179C54.5918 9.10309 54.7284 9.4095 54.7284 9.77102C54.7284 10.1281 54.5918 10.4345 54.3184 10.6902C54.0495 10.9415 53.7232 11.0672 53.3397 11.0672ZM56.8595 22.6667V21.1456L62.0972 14.5788V14.4928H57.0315V12.5089H65.0268V14.1423L60.0405 20.5968V20.6827H65.1987V22.6667H56.8595ZM67.5547 22.6667V9.12293H72.6336C73.674 9.12293 74.547 9.30369 75.2524 9.66521C75.9622 10.0267 76.4978 10.5337 76.8594 11.1862C77.2253 11.8343 77.4083 12.5904 77.4083 13.4545C77.4083 14.3231 77.2231 15.077 76.8528 15.7162C76.4868 16.3511 75.9468 16.8427 75.2325 17.191C74.5183 17.5349 73.641 17.7068 72.6005 17.7068H68.9831V15.67H72.2698C72.8782 15.67 73.3764 15.5862 73.7644 15.4187C74.1524 15.2467 74.439 14.9976 74.6241 14.6714C74.8137 14.3407 74.9085 13.9351 74.9085 13.4545C74.9085 12.974 74.8137 12.564 74.6241 12.2245C74.4345 11.8806 74.1458 11.6205 73.7578 11.4441C73.3698 11.2634 72.8694 11.173 72.2566 11.173H70.0081V22.6667H67.5547ZM74.5514 16.5297L77.9042 22.6667H75.1664L71.873 16.5297H74.5514ZM82.4839 22.8717C81.8402 22.8717 81.2604 22.757 80.7446 22.5278C80.2332 22.2941 79.8276 21.9502 79.5278 21.4961C79.2324 21.042 79.0847 20.4821 79.0847 19.8164C79.0847 19.2433 79.1905 18.7693 79.4021 18.3946C79.6137 18.0198 79.9025 17.72 80.2684 17.4952C80.6344 17.2703 81.0466 17.1006 81.5051 16.986C81.968 16.8669 82.4464 16.781 82.9402 16.7281C83.5353 16.6663 84.0181 16.6112 84.3884 16.5627C84.7588 16.5098 85.0277 16.4305 85.1952 16.3247C85.3672 16.2144 85.4532 16.0447 85.4532 15.8154V15.7758C85.4532 15.2776 85.3055 14.8918 85.0101 14.6185C84.7147 14.3451 84.2892 14.2084 83.7337 14.2084C83.1474 14.2084 82.6823 14.3363 82.3384 14.592C81.9989 14.8477 81.7696 15.1497 81.6506 15.498L79.4154 15.1806C79.5917 14.5633 79.8827 14.0475 80.2883 13.6331C80.6939 13.2143 81.1899 12.9012 81.7762 12.694C82.3626 12.4824 83.0107 12.3766 83.7205 12.3766C84.2099 12.3766 84.6971 12.4339 85.182 12.5485C85.667 12.6632 86.1101 12.8527 86.5113 13.1173C86.9125 13.3774 87.2343 13.7323 87.4768 14.182C87.7237 14.6317 87.8471 15.1938 87.8471 15.8683V22.6667H85.5457V21.2713H85.4664C85.3209 21.5535 85.1159 21.818 84.8514 22.0649C84.5912 22.3074 84.2628 22.5035 83.866 22.6534C83.4736 22.7989 83.0129 22.8717 82.4839 22.8717ZM83.1055 21.1126C83.586 21.1126 84.0027 21.0178 84.3554 20.8282C84.7081 20.6342 84.9792 20.3785 85.1688 20.0611C85.3628 19.7437 85.4598 19.3976 85.4598 19.0228V17.8258C85.3848 17.8876 85.257 17.9449 85.0762 17.9978C84.8999 18.0507 84.7015 18.097 84.481 18.1367C84.2606 18.1763 84.0424 18.2116 83.8263 18.2425C83.6103 18.2733 83.4229 18.2998 83.2642 18.3218C82.9071 18.3703 82.5875 18.4497 82.3053 18.5599C82.0231 18.6701 81.8005 18.8244 81.6374 19.0228C81.4742 19.2168 81.3927 19.4681 81.3927 19.7767C81.3927 20.2176 81.5536 20.5505 81.8754 20.7753C82.1973 21.0002 82.6073 21.1126 83.1055 21.1126ZM91.3785 26.4758C91.0523 26.4758 90.7503 26.4494 90.4725 26.3965C90.1992 26.348 89.981 26.2907 89.8178 26.2245L90.3733 24.3596C90.7216 24.461 91.0325 24.5095 91.3058 24.5051C91.5791 24.5007 91.8194 24.4147 92.0266 24.2472C92.2383 24.0841 92.4168 23.8107 92.5623 23.4272L92.7673 22.8783L89.0838 12.5089H91.6232L93.9643 20.1801H94.0701L96.4178 12.5089H98.9638L94.8967 23.8967C94.7072 24.4346 94.4559 24.8953 94.1428 25.2789C93.8298 25.6668 93.4463 25.9622 92.9922 26.165C92.5425 26.3722 92.0046 26.4758 91.3785 26.4758Z" fill="black" style="fill:black;fill-opacity:1;"/>
<defs>
<filter id="filter0_d_39_216" x="4.52075" y="3.75" width="23" height="28" filterUnits="userSpaceOnUse" color-interpolation-filters="sRGB">
<feFlood flood-opacity="0" result="BackgroundImageFix"/>
<feColorMatrix in="SourceAlpha" type="matrix" values="0 0 0 0 0 0 0 0 0 0 0 0 0 0 0 0 0 0 127 0" result="hardAlpha"/>
<feMorphology radius="1" operator="erode" in="SourceAlpha" result="effect1_dropShadow_39_216"/>
<feOffset dy="1.5"/>
<feGaussianBlur stdDeviation="1.5"/>
<feComposite in2="hardAlpha" operator="out"/>
<feColorMatrix type="matrix" values="0 0 0 0 0.141176 0 0 0 0 0.141176 0 0 0 0 0.141176 0 0 0 0.1 0"/>
<feBlend mode="normal" in2="BackgroundImageFix" result="effect1_dropShadow_39_216"/>
<feBlend mode="normal" in="SourceGraphic" in2="effect1_dropShadow_39_216" result="shape"/>
</filter>
<linearGradient id="paint0_linear_39_216" x1="16.0208" y1="6.75" x2="16.0208" y2="25.75" gradientUnits="userSpaceOnUse">
<stop stop-color="white" stop-opacity="0.8" style="stop-color:white;stop-opacity:0.8;"/>
<stop offset="1" stop-color="white" stop-opacity="0.5" style="stop-color:white;stop-opacity:0.5;"/>
</linearGradient>
<linearGradient id="paint1_linear_39_216" x1="16.0208" y1="6.75" x2="16.0208" y2="25.75" gradientUnits="userSpaceOnUse">
<stop stop-color="white" stop-opacity="0.8" style="stop-color:white;stop-opacity:0.8;"/>
<stop offset="1" stop-color="white" stop-opacity="0.5" style="stop-color:white;stop-opacity:0.5;"/>
</linearGradient>
</defs>
</svg>
