<svg width="155" height="54" viewBox="0 0 155 54" fill="none" xmlns="http://www.w3.org/2000/svg">
<g filter="url(#filter0_ddiii_1_2850)">
<g clip-path="url(#clip0_1_2850)">
<rect x="3" width="48" height="48" rx="12" fill="#5925DC" style="fill:#5925DC;fill:color(display-p3 0.3491 0.1467 0.8611);fill-opacity:1;"/>
<rect width="48" height="48" transform="translate(3)" fill="url(#paint0_linear_1_2850)" style=""/>
<g filter="url(#filter1_d_1_2850)">
<path d="M33.4839 35.376C33.0316 36.3813 32.4692 37.3658 31.795 38.2176C37.3886 36.3323 41.5063 31.2386 41.9596 25.125H39.9684C37.5385 25.125 35.5866 27.0646 35.1916 29.4622C34.8275 31.6723 34.245 33.6848 33.4839 35.376Z" fill="url(#paint1_linear_1_2850)" style=""/>
<path d="M29.0798 25.125C31.6239 25.125 33.705 27.2474 33.2377 29.7482C32.2228 35.18 29.8127 39 27.0011 39C23.4435 39 20.5287 32.8838 20.2698 25.125H29.0798Z" fill="url(#paint2_linear_1_2850)" style=""/>
<path d="M35.2433 18.8626C35.6154 21.2826 37.5763 23.25 40.0247 23.25H41.9827C41.6735 16.9704 37.5026 11.7061 31.795 9.78238C32.4692 10.6342 33.0316 11.6187 33.4839 12.624C34.2821 14.3977 34.8839 16.5248 35.2433 18.8626Z" fill="url(#paint3_linear_1_2850)" style=""/>
<path d="M33.3129 18.6718C33.7384 21.16 31.6663 23.25 29.142 23.25H20.2594C20.4352 15.3142 23.3864 9 27.0011 9C29.8846 9 32.3458 13.0179 33.3129 18.6718Z" fill="url(#paint4_linear_1_2850)" style=""/>
<path d="M18.384 23.25C18.4692 19.1938 19.243 15.4579 20.5183 12.624C20.9707 11.6187 21.533 10.6342 22.2072 9.78238C16.4997 11.7061 12.3288 16.9703 12.0195 23.25H18.384Z" fill="url(#paint5_linear_1_2850)" style=""/>
<path d="M12.0427 25.125C12.496 31.2386 16.6136 36.3323 22.2072 38.2176C21.533 37.3658 20.9707 36.3813 20.5183 35.376C19.2824 32.6296 18.5175 29.0362 18.3938 25.125H12.0427Z" fill="url(#paint6_linear_1_2850)" style=""/>
</g>
</g>
<rect x="4" y="1" width="46" height="46" rx="11" stroke="url(#paint7_linear_1_2850)" style="" stroke-width="2"/>
</g>
<path d="M62.5376 34V13.6844H71.009C72.53 13.6844 73.8031 13.8993 74.8281 14.3292C75.8598 14.759 76.6335 15.3608 77.1493 16.1346C77.6718 16.9083 77.933 17.8044 77.933 18.8228C77.933 19.5965 77.771 20.2876 77.4469 20.896C77.1229 21.4978 76.6765 21.9971 76.1078 22.3939C75.539 22.7907 74.881 23.0685 74.1337 23.2272V23.4256C74.9538 23.4652 75.711 23.6868 76.4053 24.0902C77.1063 24.4936 77.6685 25.0557 78.0917 25.7765C78.5149 26.4908 78.7266 27.3372 78.7266 28.316C78.7266 29.4072 78.4488 30.3826 77.8933 31.2423C77.3378 32.0954 76.5343 32.77 75.4828 33.2659C74.4313 33.7553 73.155 34 71.6538 34H62.5376ZM67.4478 30.042H70.4833C71.548 30.042 72.3316 29.8403 72.8342 29.4369C73.3435 29.0335 73.5981 28.4714 73.5981 27.7506C73.5981 27.2281 73.4757 26.7784 73.231 26.4015C72.9863 26.0179 72.6392 25.7236 72.1895 25.5186C71.7398 25.307 71.2008 25.2012 70.5725 25.2012H67.4478V30.042ZM67.4478 22.0368H70.1658C70.7015 22.0368 71.1776 21.9475 71.5943 21.769C72.0109 21.5904 72.3349 21.3325 72.5664 20.9952C72.8045 20.658 72.9235 20.2513 72.9235 19.7751C72.9235 19.0939 72.6821 18.5583 72.1994 18.1681C71.7166 17.7779 71.0652 17.5828 70.2452 17.5828H67.4478V22.0368ZM81.0875 34V18.7633H85.9382V34H81.0875ZM83.5178 16.9877C82.8366 16.9877 82.2514 16.7628 81.762 16.3131C81.2726 15.8568 81.0279 15.3079 81.0279 14.6664C81.0279 14.0316 81.2726 13.4893 81.762 13.0396C82.2514 12.5833 82.8366 12.3551 83.5178 12.3551C84.2056 12.3551 84.7908 12.5833 85.2736 13.0396C85.763 13.4893 86.0076 14.0316 86.0076 14.6664C86.0076 15.3079 85.763 15.8568 85.2736 16.3131C84.7908 16.7628 84.2056 16.9877 83.5178 16.9877ZM89.0654 34V31.2324L96.1282 22.632V22.5328H89.3134V18.7633H101.911V21.7987L95.3644 30.1313V30.2305H102.15V34H89.0654ZM105.284 34V13.6844H113.676C115.197 13.6844 116.51 13.9588 117.614 14.5077C118.725 15.05 119.582 15.8304 120.184 16.8488C120.785 17.8606 121.086 19.0609 121.086 20.4496C121.086 21.8582 120.779 23.0552 120.164 24.0406C119.549 25.0193 118.676 25.7666 117.545 26.2824C116.414 26.7917 115.075 27.0463 113.527 27.0463H108.22V23.1776H112.615C113.356 23.1776 113.974 23.0817 114.47 22.8899C114.972 22.6915 115.353 22.3939 115.611 21.9971C115.869 21.5937 115.997 21.0779 115.997 20.4496C115.997 19.8214 115.869 19.3023 115.611 18.8922C115.353 18.4756 114.972 18.1648 114.47 17.9598C113.967 17.7482 113.349 17.6424 112.615 17.6424H110.194V34H105.284ZM116.722 24.7151L121.781 34H116.424L111.464 24.7151H116.722ZM128.075 34.2579C127.103 34.2579 126.24 34.0959 125.486 33.7718C124.738 33.4412 124.147 32.9452 123.71 32.2839C123.28 31.616 123.065 30.7794 123.065 29.7742C123.065 28.9277 123.214 28.2135 123.512 27.6315C123.809 27.0496 124.219 26.5767 124.742 26.213C125.264 25.8493 125.866 25.5748 126.547 25.3897C127.228 25.1979 127.956 25.0689 128.729 25.0028C129.596 24.9234 130.293 24.8408 130.823 24.7548C131.352 24.6622 131.735 24.5333 131.973 24.3679C132.218 24.196 132.34 23.9546 132.34 23.6438V23.5942C132.34 23.085 132.165 22.6915 131.814 22.4138C131.464 22.136 130.991 21.9971 130.396 21.9971C129.754 21.9971 129.239 22.136 128.848 22.4138C128.458 22.6915 128.21 23.0751 128.105 23.5644L123.631 23.4057C123.763 22.4799 124.104 21.6532 124.652 20.9258C125.208 20.1917 125.968 19.6164 126.934 19.1998C127.906 18.7765 129.073 18.5649 130.436 18.5649C131.408 18.5649 132.304 18.6806 133.124 18.9121C133.944 19.1369 134.658 19.4676 135.267 19.9041C135.875 20.3339 136.344 20.863 136.675 21.4912C137.012 22.1195 137.181 22.837 137.181 23.6438V34H132.618V31.8772H132.499C132.228 32.393 131.881 32.8295 131.457 33.1866C131.041 33.5437 130.548 33.8115 129.979 33.9901C129.417 34.1686 128.782 34.2579 128.075 34.2579ZM129.573 31.0836C130.095 31.0836 130.565 30.9778 130.981 30.7662C131.404 30.5545 131.742 30.2636 131.993 29.8932C132.244 29.5163 132.37 29.0798 132.37 28.5838V27.1355C132.231 27.2083 132.062 27.2744 131.864 27.3339C131.672 27.3935 131.461 27.4497 131.229 27.5026C130.998 27.5555 130.76 27.6018 130.515 27.6415C130.27 27.6811 130.036 27.7175 129.811 27.7506C129.354 27.8233 128.964 27.9357 128.64 28.0878C128.323 28.2399 128.078 28.4383 127.906 28.683C127.741 28.9211 127.658 29.2055 127.658 29.5361C127.658 30.0387 127.837 30.4223 128.194 30.6868C128.558 30.9513 129.017 31.0836 129.573 31.0836ZM142.567 39.7138C141.986 39.7138 141.437 39.6675 140.921 39.5749C140.405 39.4889 139.962 39.3732 139.592 39.2277L140.663 35.7062C141.139 35.8649 141.569 35.9575 141.952 35.9839C142.343 36.0104 142.677 35.9476 142.954 35.7955C143.239 35.65 143.457 35.3888 143.609 35.0118L143.798 34.5555L138.381 18.7633H143.46L146.268 29.6353H146.426L149.273 18.7633H154.382L148.638 35.4582C148.361 36.2915 147.967 37.0255 147.458 37.6604C146.955 38.3019 146.304 38.8045 145.504 39.1682C144.71 39.5319 143.731 39.7138 142.567 39.7138Z" fill="black" style="fill:black;fill-opacity:1;"/>
<defs>
<filter id="filter0_ddiii_1_2850" x="0" y="-3" width="54" height="57" filterUnits="userSpaceOnUse" color-interpolation-filters="sRGB">
<feFlood flood-opacity="0" result="BackgroundImageFix"/>
<feColorMatrix in="SourceAlpha" type="matrix" values="0 0 0 0 0 0 0 0 0 0 0 0 0 0 0 0 0 0 127 0" result="hardAlpha"/>
<feOffset dy="1"/>
<feGaussianBlur stdDeviation="0.5"/>
<feComposite in2="hardAlpha" operator="out"/>
<feColorMatrix type="matrix" values="0 0 0 0 0.162923 0 0 0 0 0.162923 0 0 0 0 0.162923 0 0 0 0.08 0"/>
<feBlend mode="normal" in2="BackgroundImageFix" result="effect1_dropShadow_1_2850"/>
<feColorMatrix in="SourceAlpha" type="matrix" values="0 0 0 0 0 0 0 0 0 0 0 0 0 0 0 0 0 0 127 0" result="hardAlpha"/>
<feMorphology radius="1" operator="erode" in="SourceAlpha" result="effect2_dropShadow_1_2850"/>
<feOffset dy="3"/>
<feGaussianBlur stdDeviation="2"/>
<feComposite in2="hardAlpha" operator="out"/>
<feColorMatrix type="matrix" values="0 0 0 0 0.164706 0 0 0 0 0.164706 0 0 0 0 0.164706 0 0 0 0.14 0"/>
<feBlend mode="normal" in2="effect1_dropShadow_1_2850" result="effect2_dropShadow_1_2850"/>
<feBlend mode="normal" in="SourceGraphic" in2="effect2_dropShadow_1_2850" result="shape"/>
<feColorMatrix in="SourceAlpha" type="matrix" values="0 0 0 0 0 0 0 0 0 0 0 0 0 0 0 0 0 0 127 0" result="hardAlpha"/>
<feOffset dy="-3"/>
<feGaussianBlur stdDeviation="1.5"/>
<feComposite in2="hardAlpha" operator="arithmetic" k2="-1" k3="1"/>
<feColorMatrix type="matrix" values="0 0 0 0 0 0 0 0 0 0 0 0 0 0 0 0 0 0 0.1 0"/>
<feBlend mode="normal" in2="shape" result="effect3_innerShadow_1_2850"/>
<feColorMatrix in="SourceAlpha" type="matrix" values="0 0 0 0 0 0 0 0 0 0 0 0 0 0 0 0 0 0 127 0" result="hardAlpha"/>
<feOffset dy="3"/>
<feGaussianBlur stdDeviation="1.5"/>
<feComposite in2="hardAlpha" operator="arithmetic" k2="-1" k3="1"/>
<feColorMatrix type="matrix" values="0 0 0 0 1 0 0 0 0 1 0 0 0 0 1 0 0 0 0.1 0"/>
<feBlend mode="normal" in2="effect3_innerShadow_1_2850" result="effect4_innerShadow_1_2850"/>
<feColorMatrix in="SourceAlpha" type="matrix" values="0 0 0 0 0 0 0 0 0 0 0 0 0 0 0 0 0 0 127 0" result="hardAlpha"/>
<feMorphology radius="1" operator="erode" in="SourceAlpha" result="effect5_innerShadow_1_2850"/>
<feOffset/>
<feComposite in2="hardAlpha" operator="arithmetic" k2="-1" k3="1"/>
<feColorMatrix type="matrix" values="0 0 0 0 0.0627451 0 0 0 0 0.0941176 0 0 0 0 0.156863 0 0 0 0.24 0"/>
<feBlend mode="normal" in2="effect4_innerShadow_1_2850" result="effect5_innerShadow_1_2850"/>
</filter>
<filter id="filter1_d_1_2850" x="9" y="5.25" width="36" height="42" filterUnits="userSpaceOnUse" color-interpolation-filters="sRGB">
<feFlood flood-opacity="0" result="BackgroundImageFix"/>
<feColorMatrix in="SourceAlpha" type="matrix" values="0 0 0 0 0 0 0 0 0 0 0 0 0 0 0 0 0 0 127 0" result="hardAlpha"/>
<feMorphology radius="1.5" operator="erode" in="SourceAlpha" result="effect1_dropShadow_1_2850"/>
<feOffset dy="2.25"/>
<feGaussianBlur stdDeviation="2.25"/>
<feComposite in2="hardAlpha" operator="out"/>
<feColorMatrix type="matrix" values="0 0 0 0 0.141176 0 0 0 0 0.141176 0 0 0 0 0.141176 0 0 0 0.1 0"/>
<feBlend mode="normal" in2="BackgroundImageFix" result="effect1_dropShadow_1_2850"/>
<feBlend mode="normal" in="SourceGraphic" in2="effect1_dropShadow_1_2850" result="shape"/>
</filter>
<linearGradient id="paint0_linear_1_2850" x1="24" y1="5.96047e-07" x2="26" y2="48" gradientUnits="userSpaceOnUse">
<stop stop-color="white" stop-opacity="0" style="stop-color:none;stop-opacity:0;"/>
<stop offset="1" stop-color="white" stop-opacity="0.12" style="stop-color:white;stop-opacity:0.12;"/>
</linearGradient>
<linearGradient id="paint1_linear_1_2850" x1="27.0011" y1="9" x2="27.0011" y2="39" gradientUnits="userSpaceOnUse">
<stop stop-color="white" stop-opacity="0.8" style="stop-color:white;stop-opacity:0.8;"/>
<stop offset="1" stop-color="white" stop-opacity="0.5" style="stop-color:white;stop-opacity:0.5;"/>
</linearGradient>
<linearGradient id="paint2_linear_1_2850" x1="27.0011" y1="9" x2="27.0011" y2="39" gradientUnits="userSpaceOnUse">
<stop stop-color="white" stop-opacity="0.8" style="stop-color:white;stop-opacity:0.8;"/>
<stop offset="1" stop-color="white" stop-opacity="0.5" style="stop-color:white;stop-opacity:0.5;"/>
</linearGradient>
<linearGradient id="paint3_linear_1_2850" x1="27.0011" y1="9" x2="27.0011" y2="39" gradientUnits="userSpaceOnUse">
<stop stop-color="white" stop-opacity="0.8" style="stop-color:white;stop-opacity:0.8;"/>
<stop offset="1" stop-color="white" stop-opacity="0.5" style="stop-color:white;stop-opacity:0.5;"/>
</linearGradient>
<linearGradient id="paint4_linear_1_2850" x1="27.0011" y1="9" x2="27.0011" y2="39" gradientUnits="userSpaceOnUse">
<stop stop-color="white" stop-opacity="0.8" style="stop-color:white;stop-opacity:0.8;"/>
<stop offset="1" stop-color="white" stop-opacity="0.5" style="stop-color:white;stop-opacity:0.5;"/>
</linearGradient>
<linearGradient id="paint5_linear_1_2850" x1="27.0011" y1="9" x2="27.0011" y2="39" gradientUnits="userSpaceOnUse">
<stop stop-color="white" stop-opacity="0.8" style="stop-color:white;stop-opacity:0.8;"/>
<stop offset="1" stop-color="white" stop-opacity="0.5" style="stop-color:white;stop-opacity:0.5;"/>
</linearGradient>
<linearGradient id="paint6_linear_1_2850" x1="27.0011" y1="9" x2="27.0011" y2="39" gradientUnits="userSpaceOnUse">
<stop stop-color="white" stop-opacity="0.8" style="stop-color:white;stop-opacity:0.8;"/>
<stop offset="1" stop-color="white" stop-opacity="0.5" style="stop-color:white;stop-opacity:0.5;"/>
</linearGradient>
<linearGradient id="paint7_linear_1_2850" x1="27" y1="0" x2="27" y2="48" gradientUnits="userSpaceOnUse">
<stop stop-color="white" stop-opacity="0.12" style="stop-color:white;stop-opacity:0.12;"/>
<stop offset="1" stop-color="white" stop-opacity="0" style="stop-color:none;stop-opacity:0;"/>
</linearGradient>
<clipPath id="clip0_1_2850">
<rect x="3" width="48" height="48" rx="12" fill="white" style="fill:white;fill-opacity:1;"/>
</clipPath>
</defs>
</svg>
